# xmcd CD database file
#
# Track frame offsets:
#	187
#	28815
#	37652
#	48587
#	54030
#	69835
#	76487
#	86172
#	99930
#	112677
#	120025
#	124912
#	136482
#	148375
#	180260
#	191870
#	199742
#	214322
#	218682
#	238107
#	254750
#	283497
#	291065
#
# Disc length: 4376 seconds
#
# Revision: 3
# Processed by: cddbd v1.5.2PL0 Copyright (c) Steve Scherf et al.
# Submitted via: CDex 1.70beta2
#
DISCID=55111617
DTITLE=Cal Tjader - Los Ritmos Calientes
DYEAR=1973
DGENRE=Jazz
TTITLE0=Cubano Chant
TTITLE1=Goza
TTITLE2=Panchero Mambero
TTITLE3=Alegres Timbales
TTITLE4=Mambo Moderno
TTITLE5=Afro Corolombo
TTITLE6=Ritmo Caliente
TTITLE7=Lamento De Hodi
TTITLE8=Mambo Inn
TTITLE9=Buhuto (Nanigo 6/8)
TTITLE10=Alegres Congas
TTITLE11=Mueve La Cintura
TTITLE12=Bernie's Tune
TTITLE13=Perdido
TTITLE14=Armando's Hideaway
TTITLE15=Cuco On Timbales
TTITLE16=Tumbao
TTITLE17=Ritmo Rumba
TTITLE18=Big Noise From Winnetka
TTITLE19=Poinciana Cha Cha
TTITLE20=Mongorama
TTITLE21=Ritmo Aricano
TTITLE22=Perfidia Cha Cha
EXTD=YEAR: 1973
EXTT0=
EXTT1=
EXTT2=
EXTT3=
EXTT4=
EXTT5=
EXTT6=
EXTT7=
EXTT8=
EXTT9=
EXTT10=
EXTT11=
EXTT12=
EXTT13=
EXTT14=
EXTT15=
EXTT16=
EXTT17=
EXTT18=
EXTT19=
EXTT20=
EXTT21=
EXTT22=
PLAYORDER=
